# xmcd
#
# Track frame offsets: 
#        150
#        16020
#        32880
#        49108
#        65956
#        86780
#        107830
#        119260
#        146495
#        161807
#        175480
#        201719
#        226001
#        245097
#        259458
#        277519
#        296675
#        322896
#
# Disc length: 4670 seconds
#
# Revision: 0
# Processed by: cddbd v1.5.2PL0 Copyright (c) Steve Scherf et al.
# Submitted via: ExactAudioCopy v0.99pb3
#
DISCID=10123c12
DTITLE=Various Artist - Blues sur Seine
DYEAR=2008
DGENRE=Blues
TTITLE0=Mighty Mo Rodgers - Keeping the blues alive
TTITLE1=Coup d'Blues - Blues sur Seine family
TTITLE2=Big Mama - Blues sur Seine
TTITLE3=Flyin' Saucers - Bright light big city
TTITLE4=Fruteland Jackson - Blues over Baghdad
TTITLE5=Gaye Adegbalola - Déjà vu blues
TTITLE6=Michaek Hawkeye Herman - Boogie on Blues sur Seine
TTITLE7=Jean Jacques Milteau - Ode to Billy Joe
TTITLE8=Magda Piskorczyk - Walking blues
TTITLE9=Veronika Jackson - The mood
TTITLE10=Lea Gilmore - Sing my blues away
TTITLE11=Philippe Ménard - Madison blues
TTITLE12=Beverly Jo Scott - Funny Valentine
TTITLE13=Roland Tchakounté - Ntuh ke music
TTITLE14=Janiva Magness - Sometimes you got to gamble
TTITLE15=Rick L Blues - Mantes blues
TTITLE16=Mike Lecuyer - Blues Blues sur Seine
TTITLE17=Mighty Mo Roggers - Blues sur Seine
EXTD=
EXTT0=
EXTT1=
EXTT2=
EXTT3=
EXTT4=
EXTT5=
EXTT6=
EXTT7=
EXTT8=
EXTT9=
EXTT10=
EXTT11=
EXTT12=
EXTT13=
EXTT14=
EXTT15=
EXTT16=
EXTT17=
PLAYORDER=
